<?xml version="1.0" standalone="no"?>
<!DOCTYPE svg PUBLIC "-//W3C//DTD SVG 20010904//EN"
 "http://www.w3.org/TR/2001/REC-SVG-20010904/DTD/svg10.dtd">
<svg version="1.0" xmlns="http://www.w3.org/2000/svg"
 width="769.000000pt" height="769.000000pt" viewBox="0 0 769.000000 769.000000"
 preserveAspectRatio="xMidYMid meet">
<metadata>
Created by potrace 1.14, written by Peter Selinger 2001-2017
</metadata>
<g transform="translate(0.000000,769.000000) scale(0.100000,-0.100000)"
fill="#000000" stroke="none">
<path d="M3599 7686 c-2 -2 -42 -7 -89 -10 -47 -4 -94 -9 -105 -11 -11 -3 -42
-7 -70 -10 -48 -4 -67 -7 -145 -21 -19 -4 -44 -8 -55 -10 -95 -16 -192 -39
-325 -76 -63 -17 -151 -45 -195 -60 -44 -16 -84 -30 -90 -32 -27 -6 -131 -49
-142 -58 -7 -6 -13 -8 -13 -5 0 7 -119 -47 -250 -113 -107 -53 -167 -87 -298
-165 -28 -17 -166 -108 -177 -117 -5 -5 -51 -39 -101 -76 -84 -62 -127 -96
-239 -192 -95 -81 -405 -403 -405 -420 0 -5 -4 -10 -8 -12 -4 -1 -29 -30 -55
-63 -26 -33 -51 -65 -56 -71 -5 -6 -26 -35 -47 -65 -21 -30 -42 -55 -46 -57
-5 -2 -8 -8 -8 -13 0 -6 -18 -34 -40 -64 -22 -30 -38 -55 -34 -55 4 0 0 -8 -8
-17 -25 -28 -101 -159 -162 -276 -50 -96 -156 -328 -156 -340 0 -2 -8 -22 -17
-43 -9 -22 -18 -43 -19 -49 -1 -5 -15 -48 -32 -95 -69 -198 -132 -450 -157
-623 -3 -20 -8 -54 -11 -75 -3 -20 -7 -55 -10 -77 -2 -22 -7 -59 -9 -83 -25
-205 -25 -631 0 -797 4 -28 8 -59 21 -155 2 -19 7 -48 11 -65 3 -16 7 -40 9
-52 1 -11 5 -29 8 -40 3 -10 8 -34 11 -53 3 -19 15 -71 27 -115 11 -44 22 -87
23 -95 2 -8 4 -15 5 -15 1 0 3 -9 5 -20 9 -45 96 -307 130 -390 64 -155 160
-357 213 -450 16 -27 39 -68 52 -90 31 -56 205 -316 227 -340 10 -11 31 -38
47 -60 105 -143 383 -436 521 -550 33 -28 66 -56 73 -62 7 -7 48 -39 90 -70
42 -32 79 -60 82 -63 3 -4 43 -32 90 -63 47 -31 93 -63 103 -72 10 -9 28 -20
40 -26 12 -5 31 -15 42 -22 134 -82 358 -198 460 -239 22 -9 58 -24 80 -34 22
-10 42 -18 45 -19 3 -1 14 -5 25 -9 103 -40 213 -77 285 -97 25 -7 50 -14 55
-15 25 -8 215 -55 255 -64 43 -9 57 -12 144 -25 21 -4 48 -9 60 -11 11 -2 41
-6 66 -9 25 -3 59 -8 75 -10 175 -27 686 -27 885 1 19 2 53 7 75 9 22 2 51 6
65 9 14 3 43 7 64 11 21 3 48 7 60 10 12 3 32 7 46 9 14 3 36 8 50 11 14 3 36
7 50 10 116 21 423 118 575 180 11 5 22 9 25 10 3 0 27 11 54 23 27 12 50 22
53 22 11 0 296 146 363 186 19 11 40 22 45 24 6 2 15 8 20 12 6 5 59 40 118
79 60 38 116 76 124 84 8 8 17 15 21 15 4 0 19 10 34 23 50 42 63 52 91 70 16
10 36 26 46 35 10 9 46 42 82 72 306 262 585 593 789 935 103 174 162 289 249
489 11 27 21 55 21 62 0 8 4 14 8 14 5 0 9 6 10 13 0 6 12 44 27 82 33 89 102
307 111 352 12 64 48 210 52 218 3 5 7 20 8 33 2 13 10 54 18 90 8 37 18 92
21 122 4 30 10 71 13 90 7 47 6 618 -2 700 -3 36 -8 88 -10 115 -9 98 -17 160
-22 175 -3 8 -8 31 -10 50 -2 19 -6 44 -9 56 -2 12 -7 39 -11 60 -3 21 -10 46
-15 55 -4 9 -6 18 -4 21 4 4 -16 92 -54 232 -35 125 -96 300 -154 436 -6 14
-11 27 -12 30 -17 48 -161 337 -186 371 -10 15 -19 30 -19 33 0 20 -278 430
-309 456 -3 3 -24 28 -46 55 -105 132 -247 281 -385 405 -45 41 -88 80 -94 85
-49 45 -221 175 -311 236 -60 41 -111 77 -113 82 -2 4 -8 7 -14 7 -5 0 -24 10
-41 22 -18 13 -34 23 -37 23 -3 0 -16 8 -30 17 -79 50 -271 149 -400 206 -226
100 -628 226 -786 247 -11 2 -45 8 -75 14 -86 16 -220 36 -331 47 -60 6 -594
15 -599 10z"/>
</g>
</svg>
